# xmcd
#
# Track frame offsets:
#	150
#	33733
#	54555
#	80731
#	110453
#	130107
#	138780
#	169736
#
# Disc length: 2463 seconds
#
# Revision: 2
# Processed by: cddbd v1.5.1PL0 Copyright (c) Steve Scherf et al.
# Submitted via: EasyCDDAExtractor 5.1.0
#
DISCID=69099d08
DTITLE=Black Sabbath - Gaumont Theatre Southampton 25-06-80
DYEAR=1980
DGENRE=Hard Rock
TTITLE0=War Pigs
TTITLE1=Neon Knights
TTITLE2=N.I.B
TTITLE3=Lonely Is The Word
TTITLE4=Sweet Leaf
TTITLE5=Drum Solo
TTITLE6=Children Of The Sea
TTITLE7=Black Sabbath (Cut)
EXTD=
EXTT0=
EXTT1=
EXTT2=
EXTT3=
EXTT4=
EXTT5=
EXTT6=
EXTT7=
PLAYORDER=
